<mxfile host="app.diagrams.net" modified="2023-10-15T12:50:54.093Z" agent="Mozilla/5.0 (Macintosh; Intel Mac OS X 10_15_7) AppleWebKit/537.36 (KHTML, like Gecko) Chrome/116.0.0.0 Safari/537.36" etag="-IimSZzjTeoluYdXb3n-" version="21.7.5" type="github">
  <diagram name="第 1 页" id="dI9Lws39XAioukQKtW0E">
    <mxGraphModel dx="892" dy="789" grid="1" gridSize="10" guides="1" tooltips="1" connect="1" arrows="1" fold="1" page="1" pageScale="1" pageWidth="827" pageHeight="1169" math="0" shadow="0">
      <root>
        <mxCell id="0" />
        <mxCell id="1" parent="0" />
      </root>
    </mxGraphModel>
  </diagram>
</mxfile>
